<svg width="20" height="20" viewBox="0 0 20 20" fill="none" xmlns="http://www.w3.org/2000/svg">
<path d="M16.5475 1.6665H3.45222C2.46598 1.6665 1.6665 2.46598 1.6665 3.45222V16.5475C1.6665 17.5337 2.46598 18.3332 3.45222 18.3332H16.5475C17.5337 18.3332 18.3332 17.5337 18.3332 16.5475V3.45222C18.3332 2.46598 17.5337 1.6665 16.5475 1.6665ZM16.5475 16.5475H3.45222V3.45222H16.5475V16.5475ZM15.2132 7.55475L8.79251 13.9239C8.61747 14.0976 8.33481 14.0965 8.16118 13.9214L4.78391 10.5168C4.61029 10.3418 4.61141 10.0591 4.78648 9.88544L5.63168 9.04705C5.80672 8.87342 6.08938 8.87454 6.26301 9.04961L8.48741 11.2921L13.746 6.07569C13.9211 5.90207 14.2037 5.90319 14.3774 6.07822L15.2158 6.92339C15.3894 7.09846 15.3883 7.38112 15.2132 7.55475Z" fill="#6C757D"/>
</svg>
